<svg width="0"
     height="0"
     class="hidden">
<symbol xmlns="http://www.w3.org/2000/svg"
        xmlns:xlink="http://www.w3.org/1999/xlink"
        viewBox="0 0 209 55"
        id="clicasa">
<defs>
<path id="ha35e8muga"
      d="M52.802 0.279L0 0.279 0 53.683 52.802 53.683 52.802 0.279z" />
</defs>
<g fill="none"
   fill-rule="evenodd">
<g transform="translate(0 .004)">
<mask id="rg6tj4z4db"
      fill="#fff">
<use xlink:href="#ha35e8muga" />
</mask>
<path fill="#008BCF"
      d="M24.924 34.715c1.354.424 2.267.421 3.621 0 1.38-.43 1.891-1.41 2.19-1.973.298-.562.403-1.612.1-2.007-.301-.396-.656-.157-.943.021-.288.178-.969.43-1.618.61-.649.18-2.43.18-3.078 0-.65-.18-1.33-.432-1.618-.61-.287-.178-.642-.417-.944-.021-.302.395-.197 1.445.101 2.007.299.562.856 1.555 2.19 1.973zm11.943-6.863c0-1.216-.986-2.202-2.202-2.202-1.217 0-2.203.986-2.203 2.202 0 1.217.986 2.203 2.203 2.203 1.216 0 2.202-.986 2.202-2.203zm-15.86 0c0-1.216-.986-2.202-2.202-2.202s-2.202.986-2.202 2.202c0 1.217.986 2.203 2.202 2.203s2.202-.986 2.202-2.203zm30.9 7.192c.265 0 .456.257.376.509-3.454 10.746-13.686 18.13-25.581 18.13C12.48 53.683.857 42.566.045 28.548-.876 12.644 12.45-.64 28.35.328c13.26.808 23.39 9.836 24.45 23.027.019.228-.164.422-.392.422H41.746c-.281 0-.655-.374-.655-.655l.011-2.075c0-.28.228-.508.51-.508h2.565c.283 0 .396-.484.162-.693l-16.875-9.91c-.487-.437-1.128-.437-1.616 0l-16.875 9.91c-.234.21-.121.693.163.693H11.7c.28 0 .509.228.509.508v17.109c0 .685.55 1.24 1.228 1.24h26.436c.678 0 1.229-.555 1.229-1.24l.028-2.604c0-.28.228-.508.51-.508h10.266z"
      mask="url(#rg6tj4z4db)" />
</g>
<path fill="#008BCF"
      fill-rule="nonzero"
      d="M77.868 40.432c3.564 0 10.512-1.152 10.512-5.076v-4.14h-5.76v1.98c0 1.548-3.132 1.836-4.284 1.836-4.284 0-7.452-2.988-7.452-8.316 0-4.788 2.916-7.488 7.092-7.488 1.728 0 4.356.396 4.356 1.836v1.98h5.76v-4.068c0-4.14-7.272-5.148-10.404-5.148-7.524 0-13.464 5.544-13.464 13.248 0 7.524 5.76 13.356 13.644 13.356zm21.168-.252c1.008 0 1.872-.108 1.872-.108V35.14s-.36.036-.756.036c-1.404 0-1.728-.612-1.728-2.376V14.26h-8.748v4.5h2.52v14.4c0 6.228 3.528 7.02 6.84 7.02zm12.96-21.06v-4.86h-6.084v4.86h6.084zM114.408 40v-4.5h-2.34V21.46h-8.748v4.5h2.52v9.54h-2.34V40h10.908z" />
<path fill="#263E54"
      fill-rule="nonzero"
      d="M130.284 40.432c3.564 0 10.512-1.152 10.512-5.076v-4.14h-5.76v1.98c0 1.548-3.132 1.836-4.284 1.836-4.284 0-7.452-2.988-7.452-8.316 0-4.788 2.916-7.488 7.092-7.488 1.728 0 4.356.396 4.356 1.836v1.98h5.76v-4.068c0-4.14-7.272-5.148-10.404-5.148-7.524 0-13.464 5.544-13.464 13.248 0 7.524 5.76 13.356 13.644 13.356zm18.972 0c3.96 0 5.472-3.06 5.472-3.06h.072s-.072.252-.072.576v.108c0 .9.684 1.944 2.484 1.944h5.364v-4.5h-1.368c-.504 0-.792-.288-.792-.792v-6.12c0-4.86-2.88-7.56-8.28-7.56-4.68 0-7.848 2.412-7.848 2.412l2.16 4.212s2.592-1.764 5.112-1.764c1.404 0 2.628.54 2.628 2.052v.54h-1.116c-2.88 0-9.9.792-9.9 6.228 0 3.744 2.844 5.724 6.084 5.724zm1.836-4.5c-1.008 0-1.656-.684-1.656-1.656 0-1.656 2.196-2.304 4.248-2.304h.576v.432c0 1.62-1.584 3.528-3.168 3.528zm21.132 4.5c4.392 0 8.46-1.8 8.46-5.976 0-3.852-3.492-5.004-6.3-5.76-1.764-.468-3.24-.9-3.24-2.016 0-.72.756-.936 1.764-.936 1.332 0 1.872.432 1.872 1.008v.828H180v-2.52c0-3.024-4.248-4.032-7.092-4.032-3.564 0-7.956 1.224-7.956 5.58 0 3.744 3.204 5.04 5.904 5.94 2.376.792 3.636.936 3.636 2.088 0 .72-.792 1.08-2.268 1.08-1.8 0-2.7-.504-2.7-1.332v-.936h-5.22v2.484c0 3.096 4.608 4.5 7.92 4.5zm16.344 0c3.96 0 5.472-3.06 5.472-3.06h.072s-.072.252-.072.576v.108c0 .9.684 1.944 2.484 1.944h5.364v-4.5h-1.368c-.504 0-.792-.288-.792-.792v-6.12c0-4.86-2.88-7.56-8.28-7.56-4.68 0-7.848 2.412-7.848 2.412l2.16 4.212s2.592-1.764 5.112-1.764c1.404 0 2.628.54 2.628 2.052v.54h-1.116c-2.88 0-9.9.792-9.9 6.228 0 3.744 2.844 5.724 6.084 5.724zm1.836-4.5c-1.008 0-1.656-.684-1.656-1.656 0-1.656 2.196-2.304 4.248-2.304h.576v.432c0 1.62-1.584 3.528-3.168 3.528z" />
</g>
</symbol>
<symbol xmlns="http://www.w3.org/2000/svg"
        xmlns:xlink="http://www.w3.org/1999/xlink"
        viewBox="0 0 53 54"
        id="clicasa-alt">
<defs>
<path id="ga0lunswca"
      d="M52.802 0.279L0 0.279 0 53.683 52.802 53.683 52.802 0.279z" />
</defs>
<g fill="none"
   fill-rule="evenodd"
   transform="translate(0 .004)">
<mask id="jfn4t86mab"
      fill="#fff">
<use xlink:href="#ga0lunswca" />
</mask>
<path fill="#008BCF"
      d="M24.924 34.715c1.354.424 2.267.421 3.621 0 1.38-.43 1.891-1.41 2.19-1.973.298-.562.403-1.612.1-2.007-.301-.396-.656-.157-.943.021-.288.178-.969.43-1.618.61-.649.18-2.43.18-3.078 0-.65-.18-1.33-.432-1.618-.61-.287-.178-.642-.417-.944-.021-.302.395-.197 1.445.101 2.007.299.562.856 1.555 2.19 1.973zm11.943-6.863c0-1.216-.986-2.202-2.202-2.202-1.217 0-2.203.986-2.203 2.202 0 1.217.986 2.203 2.203 2.203 1.216 0 2.202-.986 2.202-2.203zm-15.86 0c0-1.216-.986-2.202-2.202-2.202s-2.202.986-2.202 2.202c0 1.217.986 2.203 2.202 2.203s2.202-.986 2.202-2.203zm30.9 7.192c.265 0 .456.257.376.509-3.454 10.746-13.686 18.13-25.581 18.13C12.48 53.683.857 42.566.045 28.548-.876 12.644 12.45-.64 28.35.328c13.26.808 23.39 9.836 24.45 23.027.019.228-.164.422-.392.422H41.746c-.281 0-.655-.374-.655-.655l.011-2.075c0-.28.228-.508.51-.508h2.565c.283 0 .396-.484.162-.693l-16.875-9.91c-.487-.437-1.128-.437-1.616 0l-16.875 9.91c-.234.21-.121.693.163.693H11.7c.28 0 .509.228.509.508v17.109c0 .685.55 1.24 1.228 1.24h26.436c.678 0 1.229-.555 1.229-1.24l.028-2.604c0-.28.228-.508.51-.508h10.266z"
      mask="url(#jfn4t86mab)" />
</g>
</symbol>
<symbol xmlns="http://www.w3.org/2000/svg"
        xmlns:xlink="http://www.w3.org/1999/xlink"
        viewBox="0 0 34 34"
        id="phone">
<defs>
<path id="f2ol1y36pa"
      d="M16.667 0c9.204 0 16.666 7.462 16.666 16.667 0 9.204-7.462 16.666-16.666 16.666C7.462 33.333 0 25.871 0 16.667 0 7.462 7.462 0 16.667 0zM14.89 8.76c-.228-1.028-1.23-1.67-2.245-1.451l-3.041.425c-.34.067-.591.293-.685.595-.363 1.241-.545 2.518-.545 3.801 0 7.205 5.742 13.235 13.1 13.894.373.038.746-.122.979-.425l1.619-2.081c.31-.375.456-.875.397-1.372-.06-.498-.32-.95-.72-1.25l-.827-.658-1.408-1.051c-.514-.39-1.16-.576-1.806-.518-.344.026-.626.175-1.29.602-.448.287-.666.41-.769.435-2.018-1.153-3.548-3-4.304-5.198.121-.082.314-.194.6-.35.717-.391.95-.542 1.138-.835.35-.54.476-1.198.348-1.832l-.338-1.697zm-2.063-.427c.493-.104.942.184 1.044.64l.2 1.023.34 1.7c.073.367 0 .748-.203 1.062-.048.074-.26.212-.761.485-.705.383-.946.54-1.135.833-.084.13-.106.29-.06.437.827 2.69 2.688 4.941 5.175 6.26.218.115.463.06.616-.096.221-.079.477-.234.973-.553.447-.287.68-.41.778-.417.395-.036.783.076 1.093.312l1.4 1.044.825.657c.185.139.297.334.323.549.025.215-.038.43-.176.597l-1.63 2.096c-.014.018-.035.027-.056.025-6.835-.613-12.157-6.2-12.157-12.857 0-1.144.157-2.283.466-3.384z" />
</defs>
<g fill="none"
   fill-rule="evenodd"
   transform="translate(.333 .333)">
<use fill="#008BCF"
     fill-rule="nonzero"
     xlink:href="#f2ol1y36pa" />
</g>
</symbol>
<symbol version="1.1"
        xmlns="http://www.w3.org/2000/svg"
        xmlns:xlink="http://www.w3.org/1999/xlink"
        xml:space="preserve"
        xmlnsSerif="http://www.serif.com/"
        viewBox="0 0 36 34"
        id="whatsapp">
<g transform="matrix(1,0,0,1,-16.7517,-13.323)">
<g id="whatsapp"
   transform="matrix(1.02252,0,0,1.02001,16.2813,13.323)">
<path fill="#81ce59"
      d="M19,0C28.205,0 35.667,7.462 35.667,16.667C35.667,25.871 28.205,33.333 19,33.333C14.92,33.333 11.183,31.868 8.286,29.434L0.46,30.7L3.967,23.874C2.92,21.693 2.333,19.249 2.333,16.668C2.333,7.462 9.795,0 19,0ZM17.225,8.76C16.996,7.732 15.995,7.09 14.979,7.309L11.938,7.734C11.598,7.801 11.348,8.027 11.253,8.329C10.891,9.57 10.708,10.847 10.708,12.13C10.708,19.335 16.451,25.365 23.808,26.024C24.181,26.062 24.554,25.902 24.788,25.599L26.406,23.518C26.716,23.143 26.862,22.643 26.803,22.146C26.744,21.648 26.484,21.196 26.083,20.896L25.256,20.238L23.848,19.187C23.335,18.797 22.689,18.611 22.042,18.669C21.699,18.695 21.416,18.844 20.752,19.271C20.305,19.558 20.086,19.681 19.984,19.706C17.966,18.553 16.436,16.706 15.679,14.508C15.8,14.426 15.993,14.314 16.279,14.158C16.997,13.767 17.229,13.616 17.417,13.323C17.767,12.783 17.893,12.125 17.766,11.491L17.427,9.794L17.225,8.76ZM15.161,8.333C15.654,8.229 16.104,8.517 16.205,8.973L16.405,9.996L16.745,11.696C16.818,12.063 16.745,12.444 16.542,12.758C16.495,12.832 16.282,12.97 15.782,13.243C15.076,13.626 14.836,13.783 14.646,14.076C14.562,14.206 14.54,14.366 14.586,14.513C15.413,17.203 17.275,19.454 19.761,20.773C19.979,20.888 20.224,20.833 20.377,20.677C20.598,20.598 20.855,20.443 21.35,20.124C21.797,19.837 22.03,19.714 22.128,19.707C22.524,19.671 22.911,19.783 23.221,20.019L24.621,21.063L25.447,21.72C25.631,21.859 25.743,22.054 25.769,22.269C25.794,22.484 25.731,22.699 25.593,22.866L23.963,24.962C23.949,24.98 23.928,24.989 23.907,24.987C17.072,24.374 11.75,18.787 11.75,12.13C11.75,10.986 11.907,9.847 12.217,8.746L15.161,8.333Z" />
</g>
</g>
</symbol>
<symbol xmlns="http://www.w3.org/2000/svg"
        xmlns:xlink="http://www.w3.org/1999/xlink"
        viewBox="0 0 34 34"
        id="email">
<defs>
<path id="y9o7hw06la"
      d="M0 16.667c0 9.204 7.462 16.666 16.667 16.666 9.204 0 16.666-7.462 16.666-16.666C33.333 7.462 25.871 0 16.667 0 7.462 0 0 7.462 0 16.667zm24.23-6.771c.713 0 1.29.578 1.29 1.291V22.24c0 .713-.577 1.291-1.29 1.291H9.103c-.713 0-1.291-.578-1.291-1.291V11.188c0-.714.578-1.292 1.291-1.292H24.23zm-4.395 6.946l-.432.466c-.715.748-1.704 1.171-2.739 1.171s-2.024-.423-2.743-1.176l-.358-.385-4.093 5.571H23.8l-3.965-5.647zm4.644-4.984l-3.919 4.206 3.919 5.58v-9.786zm-15.625.007v9.704l3.986-5.427-3.986-4.277zm15.059-.928H9.414l5.265 5.651c.47.493 1.106.792 1.781.842l.204.008c.75 0 1.467-.307 1.981-.845l5.268-5.656z" />
</defs>
<g fill="none"
   fill-rule="evenodd"
   transform="translate(.333 .333)">
<use fill="#008BCF"
     fill-rule="nonzero"
     xlink:href="#y9o7hw06la" />
</g>
</symbol>
<symbol xmlns="http://www.w3.org/2000/svg"
        viewBox="0 0 26 26"
        id="home">
<path fill="#A7ACAE"
      d="M0 12.885h.005v-.005L0 12.885zm25.283-.495c0-.143-.06-.272-.158-.362L13.346.156C13.26.063 13.136.004 13 0v.018c-.137.003-.26.062-.346.156L.874 12.044c-.096.09-.158.22-.158.363 0 .274.22.495.491.495H4V25.999h6.5v-7.555c0-.278.223-.504.498-.504h3.997c.276 0 .5.226.5.504V26h6.505V12.885h2.792c.273 0 .492-.221.492-.495zm.717.512l-.005-.004v.004H26z" />
</symbol>
<symbol xmlns="http://www.w3.org/2000/svg"
        viewBox="0 0 80 80"
        id="time">
<g fill="#A7ACAE">
<path d="M40.2 79.8c-15.6 0-29.8-9.2-36.2-23.2l5.2-2.4C14.8 66.2 27 74 40.2 74c18.8 0 34-15.2 34-34S59 6 40.2 6C26 6 14 14.8 9 28.8l-5.4-2C9.4 10.6 23.6.2 40.2.2 62.2.2 80 18 80 40c0 22-18 39.8-39.8 39.8"
      transform="matrix(-1 0 0 1 80 0)" />
<path d="M40.313 57.265L26.418 43.371 26.418 18.035 30.832 18.035 30.832 41.573 43.418 54.16 40.313 57.265"
      transform="matrix(-1 0 0 1 80 0) matrix(-1 0 0 1 69.837 0)" />
<path d="M24.8 30.8L0 30.8 0 6.2 6.2 6.2 6.2 24.6 24.8 24.6 24.8 30.8"
      transform="matrix(-1 0 0 1 80 0)" />
</g>
</symbol>
<symbol xmlns="http://www.w3.org/2000/svg"
        viewBox="0 0 78 80"
        id="wallet">
<path fill="#A7ACAE"
      d="M69.358 18.136h-4.764L54.733 1.113c-.332-.557-.886-.89-1.44-1.002-.554-.111-1.22 0-1.773.334L40.219 8.234 34.125.779C33.793.334 33.239 0 32.574 0c-.665 0-1.219.223-1.662.668L13.739 18.136H8.642C3.878 18.136 0 22.031 0 26.815v44.506C0 76.106 3.878 80 8.642 80h60.716C74.122 80 78 76.106 78 71.321V26.815c0-4.784-3.878-8.679-8.642-8.679zm4.21 39.61h-14.07c-4.765 0-8.643-3.893-8.643-8.678 0-4.784 3.878-8.679 8.642-8.679h14.071v17.358zM52.074 5.453l7.423 12.684H48.196l-5.207-6.342 9.085-6.342zm-19.722.111l10.193 12.573H19.943l12.41-12.573zm37.006 70.098H8.642c-2.327 0-4.21-1.892-4.21-4.228V26.926c0-2.336 1.883-4.228 4.21-4.228h60.716c2.327 0 4.21 1.892 4.21 4.228v9.124h-14.07c-7.203 0-13.075 5.897-13.075 13.13 0 7.232 5.872 13.017 13.074 13.017h14.071v9.124c0 2.448-1.883 4.34-4.21 4.34z" />
</symbol>
<symbol xmlns="http://www.w3.org/2000/svg"
        viewBox="0 0 80 80"
        id="paperplane">
<path fill="#A7ACAE"
      d="M78.859.4C78.444.132 77.97 0 77.5 0c-.482 0-.967.137-1.387.42L1.112 50.418c-.773.513-1.198 1.415-1.098 2.34.095.923.695 1.72 1.558 2.06l19.56 7.828L30.33 78.74c.44.773 1.258 1.25 2.143 1.26h.027c.878 0 1.693-.465 2.143-1.215l5.192-8.657 24.238 9.692c.298.12.61.177.928.177.425 0 .845-.107 1.225-.322.66-.37 1.113-1.02 1.24-1.767l12.5-74.998C80.13 1.927 79.694.942 78.86.4zM7.839 51.94l57.94-38.625-42.126 45.09c-.223-.132-.42-.307-.666-.404L7.84 51.94zm17.634 8.223c-.005-.01-.013-.015-.018-.025L72.814 9.452 32.44 72.355l-6.967-12.192zm37.57 13.857L41.69 65.48c-.507-.2-1.035-.267-1.557-.297l32.88-50.968-9.97 59.805z" />
</symbol>
<symbol xmlns="http://www.w3.org/2000/svg"
        viewBox="0 0 79 79"
        id="calendar">
<g fill="#A7ACAE"
   fill-rule="evenodd">
<path fill-rule="nonzero"
      d="M70.4 79H7.822C3.556 79 0 75.444 0 71.178V13.756c0-4.267 2.844-7.823 6.578-7.823h3.91v5.156h-3.91c-.534 0-1.245 1.067-1.245 2.667v57.422c0 1.422 1.245 2.666 2.667 2.666h62.578c1.422 0 2.666-1.244 2.666-2.666V13.756c0-1.6-.888-2.667-1.244-2.667h-3.911V5.933H72c3.556 0 6.578 3.556 6.578 7.823v57.422C78.222 75.444 74.667 79 70.4 79" />
<path fill-rule="nonzero"
      d="M18.311 16.422c-1.422 0-2.667-1.244-2.667-2.666V3.266C15.644 1.845 16.89.6 18.311.6c1.422 0 2.667 1.244 2.667 2.667v10.489c-.178 1.422-1.245 2.666-2.667 2.666M59.911 16.422c-1.422 0-2.667-1.244-2.667-2.666V3.266C57.244 1.845 58.49.6 59.911.6c1.422 0 2.667 1.244 2.667 2.667v10.489c0 1.422-1.245 2.666-2.667 2.666M26.133 5.933L52.089 5.933 52.089 11.267 26.133 11.267zM5.156 21.578L73.067 21.578 73.067 26.911 5.156 26.911z" />
<path d="M60.106 39.808L35.49 64.423c-.32.289-.689.433-1.105.433-.417 0-.786-.144-1.106-.433L19.433 50.577c-.289-.32-.433-.69-.433-1.106 0-.417.144-.77.433-1.058l2.211-2.211c.289-.289.641-.433 1.058-.433.417 0 .785.144 1.106.433l10.577 10.577L55.73 35.433c.32-.289.689-.433 1.106-.433.416 0 .769.144 1.057.433l2.212 2.211c.288.289.432.641.432 1.058 0 .417-.144.785-.432 1.106z" />
</g>
</symbol>
</svg>