<?xml version="1.0" encoding="UTF-8" standalone="no"?>
<!DOCTYPE svg PUBLIC "-//W3C//DTD SVG 1.1//EN" "http://www.w3.org/Graphics/SVG/1.1/DTD/svg11.dtd">
<svg width="100%" height="100%" viewBox="0 0 11 7" version="1.1" xmlns="http://www.w3.org/2000/svg" xmlns:xlink="http://www.w3.org/1999/xlink" xml:space="preserve" xmlns:serif="http://www.serif.com/" style="fill-rule:evenodd;clip-rule:evenodd;stroke-linejoin:round;stroke-miterlimit:2;">
    <g transform="matrix(1,0,0,1,-0.67775,-0.3585)">
        <g transform="matrix(1,0,0,1,0.444,0.111)">
            <path id="o3iaoq05ta" d="M4.787,6.576L0.527,2.316C0.136,1.925 0.136,1.286 0.527,0.896L0.882,0.54C1.272,0.15 1.912,0.15 2.302,0.54L5.552,3.79L8.805,0.54C9.195,0.15 9.835,0.15 10.225,0.54L10.581,0.896C10.971,1.286 10.971,1.925 10.581,2.316L6.32,6.576C6.11,6.786 5.829,6.879 5.554,6.863C5.279,6.879 4.998,6.785 4.788,6.576L4.787,6.576Z" style="fill:rgb(81,81,81);fill-rule:nonzero;"/>
        </g>
    </g>
</svg>
