<svg xmlns="http://www.w3.org/2000/svg" xmlns:xlink="http://www.w3.org/1999/xlink" width="53" height="54" viewBox="0 0 53 54">
    <defs>
        <path id="ga0lunswca" d="M52.802 0.279L0 0.279 0 53.683 52.802 53.683 52.802 0.279z"/>
    </defs>
    <g fill="none" fill-rule="evenodd" transform="translate(0 .004)">
        <mask id="jfn4t86mab" fill="#fff">
            <use xlink:href="#ga0lunswca"/>
        </mask>
        <path fill="#008BCF" d="M24.924 34.715c1.354.424 2.267.421 3.621 0 1.38-.43 1.891-1.41 2.19-1.973.298-.562.403-1.612.1-2.007-.301-.396-.656-.157-.943.021-.288.178-.969.43-1.618.61-.649.18-2.43.18-3.078 0-.65-.18-1.33-.432-1.618-.61-.287-.178-.642-.417-.944-.021-.302.395-.197 1.445.101 2.007.299.562.856 1.555 2.19 1.973zm11.943-6.863c0-1.216-.986-2.202-2.202-2.202-1.217 0-2.203.986-2.203 2.202 0 1.217.986 2.203 2.203 2.203 1.216 0 2.202-.986 2.202-2.203zm-15.86 0c0-1.216-.986-2.202-2.202-2.202s-2.202.986-2.202 2.202c0 1.217.986 2.203 2.202 2.203s2.202-.986 2.202-2.203zm30.9 7.192c.265 0 .456.257.376.509-3.454 10.746-13.686 18.13-25.581 18.13C12.48 53.683.857 42.566.045 28.548-.876 12.644 12.45-.64 28.35.328c13.26.808 23.39 9.836 24.45 23.027.019.228-.164.422-.392.422H41.746c-.281 0-.655-.374-.655-.655l.011-2.075c0-.28.228-.508.51-.508h2.565c.283 0 .396-.484.162-.693l-16.875-9.91c-.487-.437-1.128-.437-1.616 0l-16.875 9.91c-.234.21-.121.693.163.693H11.7c.28 0 .509.228.509.508v17.109c0 .685.55 1.24 1.228 1.24h26.436c.678 0 1.229-.555 1.229-1.24l.028-2.604c0-.28.228-.508.51-.508h10.266z" mask="url(#jfn4t86mab)"/>
    </g>
</svg>
