<svg xmlns="http://www.w3.org/2000/svg" xmlns:xlink="http://www.w3.org/1999/xlink" width="34" height="34" viewBox="0 0 34 34">
    <defs>
        <path id="y9o7hw06la" d="M0 16.667c0 9.204 7.462 16.666 16.667 16.666 9.204 0 16.666-7.462 16.666-16.666C33.333 7.462 25.871 0 16.667 0 7.462 0 0 7.462 0 16.667zm24.23-6.771c.713 0 1.29.578 1.29 1.291V22.24c0 .713-.577 1.291-1.29 1.291H9.103c-.713 0-1.291-.578-1.291-1.291V11.188c0-.714.578-1.292 1.291-1.292H24.23zm-4.395 6.946l-.432.466c-.715.748-1.704 1.171-2.739 1.171s-2.024-.423-2.743-1.176l-.358-.385-4.093 5.571H23.8l-3.965-5.647zm4.644-4.984l-3.919 4.206 3.919 5.58v-9.786zm-15.625.007v9.704l3.986-5.427-3.986-4.277zm15.059-.928H9.414l5.265 5.651c.47.493 1.106.792 1.781.842l.204.008c.75 0 1.467-.307 1.981-.845l5.268-5.656z"/>
    </defs>
    <g fill="none" fill-rule="evenodd" transform="translate(.333 .333)">
        <use fill="#008BCF" fill-rule="nonzero" xlink:href="#y9o7hw06la"/>
    </g>
</svg>
