<svg xmlns="http://www.w3.org/2000/svg" xmlns:xlink="http://www.w3.org/1999/xlink" width="36" height="34" viewBox="0 0 36 34">
    <defs>
        <path id="of9jbqzhda" d="M19 0c9.205 0 16.667 7.462 16.667 16.667 0 9.204-7.462 16.666-16.667 16.666-4.08 0-7.817-1.465-10.714-3.899L.46 30.7l3.507-6.826c-1.047-2.181-1.634-4.625-1.634-7.206C2.333 7.462 9.795 0 19 0zm-1.775 8.76c-.229-1.028-1.23-1.67-2.246-1.451l-3.041.425c-.34.067-.59.293-.685.595-.362 1.241-.545 2.518-.545 3.801 0 7.205 5.743 13.235 13.1 13.894.373.038.746-.122.98-.425l1.618-2.081c.31-.375.456-.875.397-1.372-.059-.498-.319-.95-.72-1.25l-.827-.658-1.408-1.051c-.513-.39-1.159-.576-1.806-.518-.343.026-.626.175-1.29.602-.447.287-.666.41-.768.435-2.018-1.153-3.548-3-4.305-5.198.121-.082.314-.194.6-.35.718-.391.95-.542 1.138-.835.35-.54.476-1.198.349-1.832l-.339-1.697zm-2.064-.427c.493-.104.943.184 1.044.64l.2 1.023.34 1.7c.073.367 0 .748-.203 1.062-.047.074-.26.212-.76.485-.706.383-.946.54-1.136.833-.084.13-.106.29-.06.437.827 2.69 2.689 4.941 5.175 6.26.218.115.463.06.616-.096.221-.079.478-.234.973-.553.447-.287.68-.41.778-.417.396-.036.783.076 1.093.312l1.4 1.044.826.657c.184.139.296.334.322.549.025.215-.038.43-.176.597l-1.63 2.096c-.014.018-.035.027-.056.025-6.835-.613-12.157-6.2-12.157-12.857 0-1.144.157-2.283.467-3.384z"/>
    </defs>
    <g fill="none" fill-rule="evenodd" transform="translate(0 .333)">
        <use fill="#008BCF" fill-rule="nonzero" xlink:href="#of9jbqzhda"/>
    </g>
</svg>
