<svg xmlns="http://www.w3.org/2000/svg" width="80" height="80" viewBox="0 0 80 80">
    <g fill="#A7ACAE">
        <path d="M40.2 79.8c-15.6 0-29.8-9.2-36.2-23.2l5.2-2.4C14.8 66.2 27 74 40.2 74c18.8 0 34-15.2 34-34S59 6 40.2 6C26 6 14 14.8 9 28.8l-5.4-2C9.4 10.6 23.6.2 40.2.2 62.2.2 80 18 80 40c0 22-18 39.8-39.8 39.8" transform="matrix(-1 0 0 1 80 0)"/>
        <path d="M40.313 57.265L26.418 43.371 26.418 18.035 30.832 18.035 30.832 41.573 43.418 54.16 40.313 57.265" transform="matrix(-1 0 0 1 80 0) matrix(-1 0 0 1 69.837 0)"/>
        <path d="M24.8 30.8L0 30.8 0 6.2 6.2 6.2 6.2 24.6 24.8 24.6 24.8 30.8" transform="matrix(-1 0 0 1 80 0)"/>
    </g>
</svg>
