<?xml version="1.0" encoding="UTF-8" standalone="no"?>
<!DOCTYPE svg PUBLIC "-//W3C//DTD SVG 1.1//EN" "http://www.w3.org/Graphics/SVG/1.1/DTD/svg11.dtd">
<svg width="100%" height="100%" viewBox="0 0 36 34" version="1.1" xmlns="http://www.w3.org/2000/svg" xmlns:xlink="http://www.w3.org/1999/xlink" xml:space="preserve" xmlns:serif="http://www.serif.com/" style="fill-rule:evenodd;clip-rule:evenodd;stroke-linejoin:round;stroke-miterlimit:2;">
    <g transform="matrix(1,0,0,1,-16.7517,-13.323)">
        <g id="whatsapp" transform="matrix(1.02252,0,0,1.02001,16.2813,13.323)">
            <path d="M19,0C28.205,0 35.667,7.462 35.667,16.667C35.667,25.871 28.205,33.333 19,33.333C14.92,33.333 11.183,31.868 8.286,29.434L0.46,30.7L3.967,23.874C2.92,21.693 2.333,19.249 2.333,16.668C2.333,7.462 9.795,0 19,0ZM17.225,8.76C16.996,7.732 15.995,7.09 14.979,7.309L11.938,7.734C11.598,7.801 11.348,8.027 11.253,8.329C10.891,9.57 10.708,10.847 10.708,12.13C10.708,19.335 16.451,25.365 23.808,26.024C24.181,26.062 24.554,25.902 24.788,25.599L26.406,23.518C26.716,23.143 26.862,22.643 26.803,22.146C26.744,21.648 26.484,21.196 26.083,20.896L25.256,20.238L23.848,19.187C23.335,18.797 22.689,18.611 22.042,18.669C21.699,18.695 21.416,18.844 20.752,19.271C20.305,19.558 20.086,19.681 19.984,19.706C17.966,18.553 16.436,16.706 15.679,14.508C15.8,14.426 15.993,14.314 16.279,14.158C16.997,13.767 17.229,13.616 17.417,13.323C17.767,12.783 17.893,12.125 17.766,11.491L17.427,9.794L17.225,8.76ZM15.161,8.333C15.654,8.229 16.104,8.517 16.205,8.973L16.405,9.996L16.745,11.696C16.818,12.063 16.745,12.444 16.542,12.758C16.495,12.832 16.282,12.97 15.782,13.243C15.076,13.626 14.836,13.783 14.646,14.076C14.562,14.206 14.54,14.366 14.586,14.513C15.413,17.203 17.275,19.454 19.761,20.773C19.979,20.888 20.224,20.833 20.377,20.677C20.598,20.598 20.855,20.443 21.35,20.124C21.797,19.837 22.03,19.714 22.128,19.707C22.524,19.671 22.911,19.783 23.221,20.019L24.621,21.063L25.447,21.72C25.631,21.859 25.743,22.054 25.769,22.269C25.794,22.484 25.731,22.699 25.593,22.866L23.963,24.962C23.949,24.98 23.928,24.989 23.907,24.987C17.072,24.374 11.75,18.787 11.75,12.13C11.75,10.986 11.907,9.847 12.217,8.746L15.161,8.333Z" style="fill:rgb(129,206,89);fill-rule:nonzero;"/>
        </g>
    </g>
</svg>
